# xmcd
#
# Track frame offsets:
# 150
# 21734
# 39352
# 56629
# 78464
# 96436
# 119265
# 130839
# 145966
# 169103
# 183968
# 215496
# 235520
# 254242
# 269955
#
# Disc length: 3843 seconds
#
#
# Revision: 1
# Processed by: cddbd v1.5.2PL0 Copyright (c) Steve Scherf et al.
# Submitted via: FreeRIP 2.951 
#
DISCID=e60f010f
DTITLE=Various Artist - Fruit 3 - Lychee
DYEAR=2003
DGENRE=Electronica
TTITLE0=Aston Kitty - Groove Therapy
TTITLE1=Thompascal and HP. Hoeger - Dadunda
TTITLE2=Photo feat. Mousaic - Listen To What
TTITLE3=Ralph Myerz and Jack Herren Band - Nikita
TTITLE4=Funkbrueder - Freak Out Definition
TTITLE5=Philadelphy-Martinek - Beautiful
TTITLE6=Noonday Underground - Got It Alone
TTITLE7=Cool Water feat. Time Passing - Kisses From Paris
TTITLE8=Binder and Krieglstein - Wir wissen nicht ... (Shantel´s Boucovina Remix)
TTITLE9=Poloroid -  Count On You
TTITLE10=Duptribe - The Haunted
TTITLE11=Dubaware Soundsystem feat. Martin Nitsch - Mainly Green At Treibhaus
TTITLE12=Martinek and C-Deluxe - Thanx U
TTITLE13=Nil Dymond - La La La Song
TTITLE14=Avia - Love Rise
EXTD=
EXTT0=
EXTT1=
EXTT2=
EXTT3=
EXTT4=
EXTT5=
EXTT6=
EXTT7=
EXTT8=
EXTT9=
EXTT10=
EXTT11=
EXTT12=
EXTT13=
EXTT14=
PLAYORDER=
